<svg id="Layer_1" data-name="Layer 1" xmlns="http://www.w3.org/2000/svg" xmlns:xlink="http://www.w3.org/1999/xlink" viewBox="0 0 1745.1 828.91">
   <defs>
      <style>.cls-1,.cls-13,.cls-15,.cls-16,.cls-17,.cls-18,.cls-20,.cls-23,.cls-29,.cls-30,.cls-32,.cls-34,.cls-35,.cls-5,.cls-6,.cls-8{fill:none;}.cls-2{fill:#ced1d2;}.cls-2,.cls-3,.cls-5{fill-rule:evenodd;}.cls-10,.cls-14,.cls-19,.cls-25,.cls-28,.cls-3,.cls-9{fill:#fff;}.cls-4{clip-path:url(#clip-path);}.cls-17,.cls-19,.cls-5{stroke:#000;}.cls-13,.cls-15,.cls-16,.cls-17,.cls-18,.cls-19,.cls-20,.cls-21,.cls-23,.cls-29,.cls-30,.cls-31,.cls-32,.cls-5,.cls-6,.cls-8{stroke-miterlimit:10;}.cls-5{stroke-width:6.72px;}.cls-6,.cls-8{stroke:#8c9091;}.cls-13,.cls-15,.cls-29,.cls-6{stroke-width:3px;}.cls-7{fill:#8c9091;}.cls-16,.cls-23,.cls-8{stroke-width:2px;}.cls-9{font-size:25.23px;font-family:D-DIN;}.cls-10,.cls-25,.cls-28,.cls-9{font-weight:700;}.cls-10,.cls-24{opacity:0.75;}.cls-10{font-size:14.28px;letter-spacing:0.15em;}.cls-10,.cls-25,.cls-28{font-family:D-DIN-Bold, D-DIN;}.cls-11{letter-spacing:0.14em;}.cls-12,.cls-15{opacity:0.5;}.cls-13,.cls-15,.cls-16,.cls-18,.cls-20,.cls-21,.cls-23,.cls-29,.cls-30,.cls-31,.cls-32,.cls-33,.cls-34,.cls-35{stroke:#fff;}.cls-13,.cls-15,.cls-29{stroke-linecap:round;stroke-dasharray:0 8;}.cls-17{stroke-width:10px;}.cls-18,.cls-19{stroke-width:4px;}.cls-20,.cls-21{stroke-width:1.01px;}.cls-21,.cls-31,.cls-33{fill:#464546;}.cls-22,.cls-29{opacity:0.6;}.cls-23{stroke-dasharray:6.04 6.04;}.cls-25{font-size:19.41px;letter-spacing:0.17em;}.cls-26{letter-spacing:0.18em;}.cls-27{letter-spacing:0.18em;}.cls-28{opacity:0.69;font-size:20.14px;}.cls-30,.cls-31{stroke-width:1.27px;}.cls-32,.cls-33,.cls-34,.cls-35{stroke-width:1.5px;}.cls-33,.cls-35{stroke-linejoin:bevel;}.cls-34{stroke-linejoin:round;}</style>
      <clipPath id="clip-path">
         <circle class="cls-1" cx="414.24" cy="488.01" r="147.44"></circle>
      </clipPath>
   </defs>
   <rect width="1745.1" height="828.91"></rect>
   <g id="EARTH-ILLUSTRATION-FULL">
      <g id="EARTH">
         <path class="cls-2" d="M414.23,340.57c81.29,0,147.21,66,147.21,147.44S495.52,635.45,414.23,635.45,267,569.43,267,488,333,340.57,414.23,340.57Z"></path>
         <path class="cls-2" d="M414.23,340.57c81.29,0,147.21,66,147.21,147.44S495.52,635.45,414.23,635.45,267,569.43,267,488,333,340.57,414.23,340.57Z"></path>
         <path class="cls-2" d="M414.23,340.57c81.29,0,147.21,66,147.21,147.44S495.52,635.45,414.23,635.45,267,569.43,267,488,333,340.57,414.23,340.57Z"></path>
         <path class="cls-3" d="M414.23,340.57c81.29,0,147.21,66,147.21,147.44S495.52,635.45,414.23,635.45,267,569.43,267,488,333,340.57,414.23,340.57Z"></path>
         <g class="cls-4">
            <polygon points="477.25 469.37 478.9 467.94 479.18 472.04 481.12 472.04 481.12 473.14 484.11 471.62 485.22 471.67 485.73 473.37 487.25 473.37 490.43 479.41 487.15 479.41 486.51 477.44 485.08 481.25 483.83 478.86 477.25 481.85 477.02 481.12 478.58 478.35 477.48 477.66 477.25 469.37 477.25 469.37"></polygon>
            <polygon points="465.27 478.9 470.93 478.63 470.93 479.87 467.52 480.52 465.27 479.57 465.27 478.9 465.27 478.9"></polygon>
            <polygon points="429.23 434.3 428.17 436.65 429.88 438.54 434.62 436.42 438.26 439.88 445.41 441.49 447.89 441.49 447.89 440.38 443.43 437.43 445.55 437.48 449.28 439.23 448.54 437.06 449.28 435.87 441.21 430.25 441.44 428.13 448.22 431.63 447.8 429.46 448.26 427.67 447.89 425.31 444.44 424.21 442.78 422.37 437.34 422.37 438.13 419.46 424.76 411.21 424.76 409.65 420.75 408.91 416.15 410.62 415.87 409.88 413.75 409.88 411.68 412.14 411.68 416.74 414.53 417.85 412.55 418.77 414.24 420.71 424.07 420.8 423.8 419.23 431.4 423.93 434.39 427.16 432.78 430.75 434.44 433.33 429.23 434.3 429.23 434.3"></polygon>
            <polygon points="428.63 424.53 427.67 426.74 428.36 428.17 429.05 428.17 430.48 426.35 429.88 425.2 428.63 424.53 428.63 424.53"></polygon>
            <polygon points="417.3 433.61 415.36 440.8 417.9 440.8 417.9 442.69 421.31 439.6 424.86 440.94 425.36 440.11 423.52 439.6 420.36 435.73 418.5 435.91 417.81 433.84 417.3 433.61 417.3 433.61"></polygon>
            <polygon points="420.36 443.56 420.36 445.4 421.63 445.4 423.8 443.01 423.11 442.69 422.08 442.69 420.36 443.56 420.36 443.56"></polygon>
            <polygon points="427.25 444.05 426.19 444.99 426.72 446.33 427.25 446.74 427.67 445.68 427.25 444.05 427.25 444.05"></polygon>
            <polygon points="336.71 444.81 337.95 444.35 338.51 445.31 337.61 449.18 336.2 448.45 336.71 444.81 336.71 444.81"></polygon>
            <polygon points="335 449.69 336.89 451.26 334.73 453.79 334.73 458.03 333.62 456.97 333.62 450.7 335 449.69 335 449.69"></polygon>
            <polygon points="320.86 375.09 330.07 370.21 332.33 370.21 332.01 371.59 334.08 372.28 334.08 373.52 336.43 373.48 336.43 372.19 336.02 370.85 336.85 370.48 338.28 370.21 340.03 367.9 338.32 366.89 336.11 368.18 336.06 367.26 347.54 359.1 348.5 354.91 363.2 340.57 423.11 334.73 510.38 354.91 562.44 407.25 569.45 490.29 568.34 505.31 561.68 504.57 557.56 496.11 556.27 473.14 555.16 468.81 554.43 458.03 551.02 451.39 546.59 437.2 545.76 437.66 545.67 439.97 544.84 440.06 544.57 438.03 542.82 437.76 537.56 430.2 535.53 428.73 535.53 417.2 530.1 412.6 528.25 412.04 527.79 413.98 526.04 413.06 525.49 408.91 524.11 407.25 524.01 404.86 520.88 402.28 523.74 411.68 522.63 411.86 520.88 407.25 520.42 408.91 516.37 405.41 516.37 403.29 512.87 401.8 512.87 403.38 506.05 401.17 504.75 399.14 504.57 396.47 506.87 395.64 510.28 398.77 514.8 398.96 517.2 399.51 518.49 397.94 514.43 394.35 512.13 388.91 503.46 385.6 502.82 387.44 499.69 386.79 489.73 379.33 470.75 369.47 462.45 362.74 462 356.2 463.29 355.37 461.63 353.99 457.75 354.63 456.46 353.62 456.1 352.79 454.25 352.51 452.23 353.62 451.58 352.7 451.76 351.41 443.38 348.18 443.47 349.55 446.51 350.48 447.53 352.14 446.61 353.53 437.48 353.99 426.98 352.79 427.16 351.87 443.1 351.68 443.47 350.76 437.3 347.23 435.73 347.23 430.11 349.55 429.07 348.18 426.88 348.18 424.95 347.23 416.43 347.81 415.09 349.55 407.35 350.48 404.49 352.33 396.75 351.77 395.37 349.55 387.44 351.22 386.98 352.24 382.1 353.25 378.32 352.24 377.67 354.17 373.25 356.38 374.63 358.04 373.8 358.69 371.96 357.95 363.3 362.28 360.9 366.24 356.02 366.7 353.44 371.5 351.04 372.6 350.67 373.8 352.97 373.71 350.49 378.41 342.38 386.52 343.21 386.89 339.98 390.94 338.6 390.06 335.83 390.57 335.56 389.56 338.78 386.06 338.97 384.12 337.03 382.92 331.96 385.69 331.41 381.26 329.11 380.07 330.76 377.86 330.4 376.75 331.41 374.63 328.83 374.44 328 375.64 322.29 376.75 320.86 375.09 320.86 375.09"></polygon>
            <polygon points="512.68 405.32 512.68 407.25 514.06 408.27 514.06 410.29 519.96 414.81 518.95 409.56 515.17 406.24 512.68 405.32 512.68 405.32"></polygon>
            <polygon points="406.61 352.6 404.12 353.71 407.16 354.82 407.99 353.16 406.61 352.6 406.61 352.6"></polygon>
            <polygon points="409.28 353.16 407.99 354.82 409.28 355.46 410.76 356.66 412.42 356.11 412.88 354.36 409.28 353.16 409.28 353.16"></polygon>
            <polygon points="439.51 365.05 440.25 366.52 443.47 367.81 443.47 369.93 447.16 369.93 452.78 367.99 447.43 366.98 448.45 365.69 447.06 365.05 444.39 366.61 441.35 365.05 439.51 365.05 439.51 365.05"></polygon>
            <polygon points="482.27 395.92 482.27 399.97 480.7 401.35 482.39 404.12 484.39 404.12 483.72 405.32 485.77 405.32 486.32 404.39 490.43 403.2 488.54 398.5 486.05 395.55 482.27 395.92 482.27 395.92"></polygon>
            <polygon points="471.12 406.51 474.8 413.15 472.78 416.1 473.38 419.51 475.73 422.09 475.73 425.96 479.96 430.94 480.7 433.61 478.58 434.16 474.71 431.49 473.42 434.16 464.02 428.17 460.43 424.53 457.85 424.53 452.79 415.73 454.62 413.98 447.99 408.91 446.15 410.39 443.1 406.61 434.44 399.97 429.07 401.8 424.95 399.97 424.95 397.48 422.83 396.56 423.2 395.55 425.36 392.6 425.36 391.49 424.3 391.13 425.36 385.32 428.54 382.92 427.67 379.79 431.31 377.67 437.2 377.67 438.59 375.74 439.51 376.56 444.67 379.88 452.79 382.92 452.79 384.12 457.57 384.31 464.85 392.69 467.8 392.6 471.21 395.55 472.41 399.24 472.59 404.49 471.12 406.51 471.12 406.51"></polygon>
            <path d="M533.83,572.9l-6.73,7.28-6.86,5.26-2.58-.05.64-1.06-1.8-.18-.09-2.4-5.53,1.76-.6,1-6.45,3.68-2.85-.41-.14-1-3,.32L495,588.38l-.18-1.33-4.66.27-5.76,3.55L475.36,593l-.33-1-5.2-.37-.05,1.2-3.91,2.39-.56-.87,2.63-2-2.07-.87L460.61,596l-2.12.18-.55,1.06-2.58.14-1.61,3.46-3.87,3.22-2.26-1.11-5.62.14-7,2.31-5.53-3.32,1-9.4-5.3-1.48-11.7.7,1.84-1.94.28-3.64h.79l1.33-4.7,1.5-1.5v-2.28h-7.21l-4,2v2.49L405,585.46H395.5l-3.18-1.31-6.54-9.5v-8.71H388l.33-1.79-1.06-3.92,3.08-2.3v-1.39h2.86l2.53-1.88h8.11l3.92,2.21,2.12-.83,1.89.73V553h9.49l2.12,1.75h1.34l2-1.52,4.28,2.91V560l2.67,2.81v2l2,.65,1.34,1.33h1.66l1.15-4.93-5.21-10v-3.73l4.52-5.3h.87l1.8-3.27,1.57,0,1.38-2.54,5-3-2.35-6.22,2-4.88-1.89-2.91.6-.87,1.8,1.56,1.47-3.45-.41-1,1.33-1.52,2-.65,2.81-3.68.75.75,1.32-1.12-.37-1-1.29-.85.46-4.59,2-1.71.78-1.93,1.71-.09,2.26-2.86v-.81l2.11-1.13,1.76-2.62,2.76.43-.6,2.06-2.72.83-1,2.9.23,1.06,1.84.64,2.26-4.17,5.62-4.17-1.43-1.38,2-1,.36-2.17-1.29-.46-.69-2.07-.78.14-.65,5-1.24,1.15-4.47.14-2.49-2.53v-2.56H465l1.8-3-2-1.93L461,483.37l-5,5.39,1.71-5.16,2.12-1.06.78-3.64,10.23-2.81,3.09-4,.23-1.66,2.9-1.8.79-3.45-2-3.78-1.84-.28-.74,1.34-.55-1.57-1.52-.32.09-1.66h-3.59L461,456l1.19-1.79-10-8.76v6l-1.75,2.17-5-3.64-.92-4h-2.82l-4.83-3.5-1,1-4.1-.13-1.66.69,2,8.11-1.2,4.56,2.3.73,2.72,5.3-1.2,4.34-3.13,3.31,3,8.11.05,1.75-.55,1.34-1.38-1-.56,1.43-5.71-5.57v-6.87l-4.84-.88-1.15.28-2-1.24-3-.51L409.14,462l-4.1.79v-5.95l-2.65.26v-3L407.44,444l2.42-1.1v-1L407,440.43h3.53l2.63-.69,1.93-3.32-3.87-2.49v-.74l3.87,2.12,1.39-2.48-.74-.88,2.07-.46v-1.15l2.21,1.43,2.77-3.18-1.29-1.85.18-3.68-2.21-1.29h-2.35l-.42,1,1.06,1.85-2.9,5.11-1.61-2.53,1-1.71L412.5,423l-1.19,3.13-.83-3.91-2.17-.46.93-.69-2.86-5.81-2.21,1.89.37,3.73,2.39,1.43-.23,1.29-2.63,3.59.05,2.54-.6-.09-1.06-3.18-1.1-.65-1.34.92-4.19.1-2.45-.79-2.11-4.19L388.59,423l-.23,3.36-.78.05-1.38-2.9-2.45,1.1-3.5-2.25,1.85-1.11-.33-1.34-6.54-6.08-.74,1v-2.07l-2.21.73v-2.76l-3,.37,1-1.39h-4.7v-1.1h-2.07l-1.43.28-1.93-6.78-2.22-4.38-.46-.36.37-1.62-.14-2.44L355,391.08l-2.58-.42-2.16,1.16-1.2-.93-.42-.82h-1.19l-4.57,7.37-.5-.14-.83-1.94,1.29-.64-.28-.78-2.76-1.16-1.06,1.89-1.25.23-.55,1.94.69,2.49,1.75.46-.78.69-2.31,1.32-2.12-1v-1.25h-1l-4.2,1.11L325.56,405l.5,1.94-2.67,2.39.83,2.21-.6,1.16,1.43,1.42-3,2.08-5.21-.51-1.71-1.29-1.15.05-.5-.83-1.16-.05v1.2l5.9,3.5,7.33-.14,2.12-1.93,2.21.14,1.57-1,3.22.14-.27,1.15-3.09.09-1.66,1.8-1.2-.09,1.89,1.7h2.44l2.44-1.94.88.56v5.34l2.63,3.37,1.61-.42.64,1.15-2.3,1.34-.23,5.39.6,1-.32,1-.42-.14L337,442.41l.78,1.15,1.62-.09-.56,5.48.6,1.8-.6,2.07-1.65.1.13,2.39.83.78-.73,4.2.27,3.18-2.16.27-.28,1.57,3,8.85-1.2.64.32,4.93-.55.51-.28,1.52-4.51,8.39-1.53,1-.23,4.75-2,3.09.14,6.22,1.43,2.93v2.74h-.83l.6,1.38-.46,1.66,1.29,3.59-.23,2.81,6,7.33,2.12,12.25,3,3.51.32,3.82-2.49-1.52-.46.78,6.82,7.33.09,3.73,4.75,6.68,1.43-1.79-1-2.08-1.19,0-2.12-7.56-2.49-3.64.14-2.86L342,541l-.09-5.58L346,538l.73,7.74,4,4.66.09,1.56,2.81,3.87-1,.83.42,1.06,9.26,10.78,1.06,4.89-.55,1.2h-.65l.18,1.43,24.93,14.6h7.51l10,5.67,3.78.28,4.79,1.52,3.05-.42,1.19.42-.18,1.06,5.57,3v2.48h2.81l5.76,2.77L436,607l1.7,1h2.63l.5-.83-1-.56,1.24-1.52,1.89-.83h1.11l1.38,1.39-.19.69,3.41,2.67v2.77l-2.12,2.94h-2.25v1.66l-1.52.33-2.12.87-2,2.9h-1.2v2.48h1.79L438,624.3h-1.31v2.05l3.69.56,10.32,5.57L499,623.73l44-30.27,5-22.68-14,2.12Zm-108.33-72,.65-1.29,5.62.56,3.13,3.5-.74,1.66-1.84-.37-2.21-2.43.92,2.8-.92,2V510h-1.75l-.65-2.77-2,1.29-.74-.92,1.38-1.82-.92-2.6-1.66-1.57,1.75-.74Zm-4.61,4-1.84.46-.18,2.79.92,3.17-2.31,4.47-1.05.44-1.07-3.13,1.06-5.53-1.06-1.2,2.12-4.61,2.49-.83,2.4.83-1.48,3.14Zm-6.17-13.74h3.13l1.75,3.41h2l.74,4.34-5.94.73-2.19-1.29-.9-1.29-5.44,2.58-2.49-1.38,9.31-7.1Z"></path>
            <polygon points="425.32 576.27 427.25 577.28 432.87 574.25 434.9 575.25 444.39 575.77 448.17 577.28 448.17 579.22 457.75 576.73 456.56 575.8 441.07 572.95 439.88 572.03 431.4 572.58 425.32 576.27 425.32 576.27"></polygon>
            <polygon points="462.73 578.66 457.75 580.6 458.31 581.43 465.59 580.04 467.34 578.66 471.67 576.82 474.25 576.82 474.25 575.62 468.44 574.25 460.61 576.17 460.43 577.19 462.73 578.66 462.73 578.66"></polygon>
            <polygon points="478.12 574.25 478.77 575.62 481.72 573.78 480.7 572.76 478.12 574.25 478.12 574.25"></polygon>
            <polygon points="377.95 407.25 377.95 411.12 384.77 408.36 382 412.87 384.77 415.36 381.28 415.36 381.91 417.94 383.94 420.02 383.75 421.35 387.35 422.18 392.69 420.02 395.74 422.73 397.02 422.73 396.56 421.17 397.95 421.17 398.59 419.42 396.19 416.19 396.29 409.37 394.44 408.91 392.79 412.6 392.69 408.91 391.59 408.91 390.76 411.21 388.19 407.71 388.19 405.78 385.23 401.8 382.65 401.8 382 403.66 377.95 407.25 377.95 407.25"></polygon>
            <polygon points="387.16 398.04 388.82 399.6 391.86 399.6 389.51 402.64 390.57 403.47 392.23 403.47 391.13 404.39 391.86 405.32 398.59 404.12 398.22 401.68 397.02 399.97 395.64 400.43 395.92 402.92 394.9 402.55 392.88 399.42 394.08 397.02 392.88 396.29 390.2 396.29 387.16 398.04 387.16 398.04"></polygon>
            <polygon points="401.36 408.54 399.05 412.27 402.19 416.47 404.12 415.64 404.95 412.87 404.12 407.81 401.36 408.54 401.36 408.54"></polygon>
            <polygon points="406.06 405.87 403.01 405.87 400.44 403.29 400.44 400.8 402.65 401.8 404.12 400.43 405.6 402.74 406.06 405.87 406.06 405.87"></polygon>
            <polyline points="409.56 407.25 420.36 407.25 420.36 403.94 414.24 404.39 409.56 401.17 406.06 401.17 406.79 402.37 409.83 404.95 409.65 406.51"></polyline>
            <polygon points="402.74 394.26 402.74 395.55 404.95 398.59 406.06 397.02 404.4 393.43 402.74 394.26 402.74 394.26"></polygon>
            <polygon points="409.28 390.06 407.99 392.97 408.64 395.55 411.68 397.94 413.21 396.75 414.24 398.59 412.88 401.17 414.24 402.74 421.17 401.8 420.36 399.97 421.54 397.3 420.36 393.8 422.83 391.77 423.8 385.23 420.36 384.67 411.68 387.86 411.13 390.06 409.28 390.06 409.28 390.06"></polygon>
            <polygon points="406.43 409.37 406.06 413.52 407.99 413.89 409.74 412.69 410.94 410.06 408.53 408.91 406.43 409.37 406.43 409.37"></polygon>
         </g>
         <path class="cls-5" d="M414.23,340.57c81.29,0,147.21,66,147.21,147.44S495.52,635.45,414.23,635.45,267,569.43,267,488,333,340.57,414.23,340.57Z"></path>
      </g>
      <line class="cls-6" x1="156.52" y1="487.86" x2="156.52" y2="589.14"></line>
      <polygon class="cls-7" points="151.29 587.61 156.52 596.68 161.76 587.61 151.29 587.61"></polygon>
      <line class="cls-6" x1="617.15" y1="487.86" x2="617.15" y2="386.57"></line>
      <polygon class="cls-7" points="622.39 388.11 617.15 379.04 611.91 388.11 622.39 388.11"></polygon>
      <line class="cls-6" x1="726.14" y1="487.86" x2="726.14" y2="386.57"></line>
      <polygon class="cls-7" points="731.37 388.11 726.14 379.04 720.9 388.11 731.37 388.11"></polygon>
      <polyline class="cls-8" points="617.16 487.86 654.3 518.37 680.31 518.37"></polyline>
      <polyline class="cls-8" points="156.53 487.86 93.15 431.12 53.46 431.12"></polyline>
      <text class="cls-9" transform="translate(653.89 511.29)">02</text>
      <polyline class="cls-8" points="726.14 487.86 763.29 518.37 789.29 518.37"></polyline>
      <text class="cls-10" transform="translate(136.18 488.91) rotate(90) scale(1.01 1)">
         THRUSTER
         <tspan x="0" y="16.06">BU</tspan>
         <tspan class="cls-11" x="21.59" y="16.06">R</tspan>
         <tspan x="32.16" y="16.06">N</tspan>
      </text>
      <text class="cls-10" transform="translate(747.86 481.5) rotate(-90) scale(1.01 1)">
         THRUSTER
         <tspan x="0" y="16.06">BU</tspan>
         <tspan class="cls-11" x="21.59" y="16.06">R</tspan>
         <tspan x="32.16" y="16.06">N</tspan>
      </text>
      <polyline class="cls-8" points="434.6 559.78 525.01 686.85 577.84 686.85"></polyline>
      <g id="DRAGON-RETURN">
         <g class="cls-12">
            <path class="cls-13" d="M617.15,487.86c0-127.2-103.11-230.32-230.31-230.32S156.52,360.66,156.52,487.86c0,123.59,97.35,224.44,219.55,230.06"></path>
            <polygon class="cls-14" points="373.68 725.29 386.84 718.17 374.1 710.34 373.68 725.29"></polygon>
         </g>
         <path class="cls-15" d="M400.72,717.76c116.2-6.91,209.21-100,216-216.19"></path>
         <path class="cls-15" d="M429.86,203c-144.53,5.78-261.35,119.21-272.48,262.3"></path>
         <g class="cls-12">
            <path class="cls-13" d="M452.33,203.76C604.76,209.4,726.6,334.44,726.6,487.86"></path>
            <polygon class="cls-14" points="454.32 211.36 441.56 203.56 454.7 196.41 454.32 211.36"></polygon>
         </g>
      </g>
      <g id="ISS-ORBIT">
         <path class="cls-16" d="M725.5,508.05C715.09,671,579.68,799.85,414.16,799.85c-172.31,0-312-139.68-312-312s139.67-312,312-312a310.48,310.48,0,0,1,156.71,42.16"></path>
         <path class="cls-16" d="M726.14,487.87a311,311,0,0,0-88.93-218.13"></path>
      </g>
      <g id="DRAGON-APPROACH">
         <path class="cls-17" d="M434.6,559.78c82.56,58.6,167.92,30.87,182.15-58.21"></path>
         <path class="cls-18" d="M434.6,559.78c82.56,58.6,167.92,30.87,182.15-58.21"></path>
         <path class="cls-16" d="M725.19,511.2C713.32,657.57,590.77,772.66,441.33,772.66c-157.29,0-284.81-127.51-284.81-284.8"></path>
         <polygon class="cls-14" points="720.02 512.24 725.68 504.04 729.96 513.04 720.02 512.24"></polygon>
         <path class="cls-16" d="M206.9,474.67c6.65-106.12,95.69-190.15,204.55-190.15,113.19,0,205,90.84,205,202.89"></path>
         <polygon class="cls-14" points="212.02 473.48 206.58 481.84 202.06 472.95 212.02 473.48"></polygon>
         <path class="cls-16" d="M616.69,500.67a206.33,206.33,0,0,1-4,29.22c-19.75,93-102.14,162.75-200.79,162.75-113.37,0-205.28-92.15-205.28-205.82"></path>
         <path class="cls-16" d="M617.16,487.86c0-127.2-103.12-230.32-230.32-230.32-119.17,0-217.21,90.51-229.1,206.55"></path>
         <polygon class="cls-14" points="152.97 462.17 157.12 471.24 162.9 463.12 152.97 462.17"></polygon>
      </g>
      <text class="cls-9" transform="translate(53.46 425.55)">03</text>
      <text class="cls-9" transform="translate(550.41 680.23)">01</text>
      <g id="ISS-SMALL">
         <rect class="cls-20" x="584.78" y="239.17" width="44.59" height="2.21" transform="translate(1074.69 695.91) rotate(-157.34)"></rect>
         <polyline class="cls-20" points="608.4 242.03 603.35 254.12 599.84 252.66 604.89 240.56"></polyline>
         <polyline class="cls-20" points="605.74 238.53 610.34 227.52 613.85 228.98 609.25 239.99"></polyline>
         <rect class="cls-20" x="604.95" y="249.31" width="6.26" height="3.22" transform="translate(1072.53 716.77) rotate(-157.34)"></rect>
         <rect class="cls-20" x="598.77" y="246.05" width="3.03" height="3.22" transform="translate(1058.79 707.5) rotate(-157.34)"></rect>
         <rect class="cls-21" x="619.19" y="251.23" width="3.43" height="18.64" transform="matrix(-0.92, -0.39, 0.39, -0.92, 1093.47, 740.23)"></rect>
         <rect class="cls-21" x="613.85" y="249" width="3.43" height="18.64" transform="translate(1084.07 733.88) rotate(-157.34)"></rect>
         <rect class="cls-21" x="629.5" y="226.54" width="3.43" height="18.64" transform="translate(1122.82 696.72) rotate(-157.34)"></rect>
         <rect class="cls-21" x="624.16" y="224.31" width="3.43" height="18.64" transform="translate(1113.41 690.38) rotate(-157.34)"></rect>
         <rect class="cls-21" x="586.55" y="237.6" width="3.43" height="18.64" transform="translate(1035.97 701.45) rotate(-157.34)"></rect>
         <rect class="cls-21" x="581.21" y="235.37" width="3.43" height="18.64" transform="translate(1026.56 695.1) rotate(-157.34)"></rect>
         <rect class="cls-21" x="596.86" y="212.91" width="3.43" height="18.64" transform="translate(1065.31 657.94) rotate(-157.34)"></rect>
         <rect class="cls-21" x="591.52" y="210.68" width="3.43" height="18.64" transform="translate(1055.9 651.6) rotate(-157.34)"></rect>
         <rect class="cls-21" x="613.37" y="234.77" width="4.49" height="4.49" transform="translate(1092.37 692.93) rotate(-157.34)"></rect>
         <rect class="cls-21" x="601.14" y="229.66" width="4.49" height="4.49" transform="translate(1070.82 678.4) rotate(-157.34)"></rect>
         <rect class="cls-20" x="613.63" y="250.12" width="9.22" height="18.64" transform="translate(1088.77 737.06) rotate(-157.34)"></rect>
         <rect class="cls-20" x="580.99" y="236.49" width="9.22" height="18.64" transform="translate(1031.27 698.28) rotate(-157.34)"></rect>
         <rect class="cls-20" x="623.94" y="225.42" width="9.22" height="18.64" transform="translate(1118.11 693.55) rotate(-157.34)"></rect>
         <rect class="cls-20" x="591.3" y="211.79" width="9.22" height="18.64" transform="translate(1060.61 654.77) rotate(-157.34)"></rect>
         <line class="cls-20" x1="589.19" y1="237.21" x2="590.33" y2="234.48"></line>
         <line class="cls-20" x1="591.18" y1="232.44" x2="592.32" y2="229.72"></line>
         <line class="cls-20" x1="601.38" y1="236.7" x2="602.52" y2="233.98"></line>
         <line class="cls-20" x1="613.61" y1="241.81" x2="614.75" y2="239.08"></line>
         <line class="cls-20" x1="623.82" y1="246.07" x2="624.96" y2="243.35"></line>
         <line class="cls-20" x1="621.83" y1="250.84" x2="622.97" y2="248.11"></line>
         <rect class="cls-20" x="601.78" y="230.53" width="3.13" height="2.12" transform="translate(123.7 -201.53) rotate(21.08)"></rect>
         <line class="cls-20" x1="615.07" y1="233.25" x2="616.65" y2="233.86"></line>
         <circle class="cls-21" cx="611.32" cy="229.25" r="0.77"></circle>
         <circle class="cls-21" cx="604" cy="248.25" r="0.77"></circle>
         <line class="cls-20" x1="606.38" y1="236.79" x2="610.69" y2="236.19"></line>
         <line class="cls-20" x1="609.93" y1="238.16" x2="607.14" y2="234.82"></line>
      </g>
      <text class="cls-9" transform="translate(763.47 511.81)">03</text>
   </g>
   <g id="AP-POINTER" class="cls-22">
      <line class="cls-23" x1="647.02" y1="249.14" x2="905.57" y2="216.14"></line>
      <path class="cls-14" d="M648.39,256.55a7.52,7.52,0,1,1,6.51-8.41A7.53,7.53,0,0,1,648.39,256.55Z"></path>
      <path class="cls-14" d="M648.52,257.54a8.52,8.52,0,1,0-9.53-7.37,8.52,8.52,0,0,0,9.53,7.37Zm-1.9-14.92a6.52,6.52,0,1,1-5.64,7.3,6.54,6.54,0,0,1,5.64-7.3Z"></path>
      <polygon class="cls-14" points="903.94 226.4 919.81 214.32 901.41 206.62 903.94 226.4"></polygon>
   </g>
   <g id="APPROACH-FULL">
      <text class="cls-9" transform="translate(1314.91 758.35)">04</text>
      <text class="cls-9" transform="translate(1189.45 543.7)">05</text>
      <text class="cls-9" transform="translate(1037.76 399.62)">06</text>
      <polyline id="MARKER-LINE" class="cls-8" points="1116.68 367.44 1069.85 407.58 1038.03 407.58"></polyline>
      <line id="MARKER-LINE-2" data-name="MARKER-LINE" class="cls-8" x1="1328.6" y1="702.73" x2="1328.6" y2="738.92"></line>
      <line id="MARKER-LINE-3" data-name="MARKER-LINE" class="cls-8" x1="1148.12" y1="536.19" x2="1184.31" y2="536.19"></line>
      <g class="cls-24">
         <text class="cls-25" transform="translate(1366.09 734.04)">
            F
            <tspan class="cls-26" x="13.62" y="0">INAL C</tspan>
            <tspan class="cls-27" x="90.39" y="0">O</tspan>
            <tspan class="cls-26" x="105.43" y="0">ELLIPTIC</tspan>
         </text>
      </g>
      <g id="TRAJECTORY-1">
         <line class="cls-16" x1="1576.57" y1="702.73" x2="1363.01" y2="702.73"></line>
         <polygon class="cls-14" points="1364.46 697.74 1355.83 702.73 1364.46 707.71 1364.46 697.74"></polygon>
      </g>
      <g id="TRAJECTORY-2">
         <path class="cls-16" d="M1328.6,702.73c-75.36,0-174.7-68.09-180.39-147.81"></path>
         <polygon class="cls-14" points="1153.31 556.16 1147.95 547.75 1143.34 556.6 1153.31 556.16"></polygon>
      </g>
      <g id="TRAJECTORY-3">
         <path class="cls-16" d="M1148.12,536.19c-48-31.63-60.74-83.84-40.15-144.24"></path>
         <polygon class="cls-14" points="1112.29 394.98 1110.4 385.19 1102.87 391.73 1112.29 394.98"></polygon>
      </g>
      <text class="cls-28" transform="matrix(0.93, -0.37, 0.37, 0.93, 1052.13, 64.66)">K</text>
      <text class="cls-28" transform="translate(1066.19 59.12) rotate(-18.47)">E</text>
      <text class="cls-28" transform="translate(1079.07 54.91) rotate(-15.23)">E</text>
      <text class="cls-28" transform="matrix(0.98, -0.21, 0.21, 0.98, 1092.15, 51.42)">P</text>
      <text class="cls-28" transform="matrix(0.99, -0.16, 0.16, 0.99, 1106.14, 48.62)"> </text>
      <text class="cls-28" transform="matrix(0.99, -0.12, 0.12, 0.99, 1113.54, 47.39)">O</text>
      <text class="cls-28" transform="translate(1128.33 45.75) rotate(-3.08)">U</text>
      <text class="cls-28" transform="translate(1143.46 44.98) rotate(0.93)">T</text>
      <text class="cls-28" transform="translate(1156.38 45.2) rotate(2.57)"> </text>
      <text class="cls-28" transform="translate(1163.85 45.53) rotate(5.09)">S</text>
      <text class="cls-28" transform="translate(1177.65 46.84) rotate(8.43)">P</text>
      <text class="cls-28" transform="translate(1191.71 48.99) rotate(11.92)">H</text>
      <text class="cls-28" transform="translate(1206.44 52.22) rotate(15.35)">E</text>
      <text class="cls-28" transform="translate(1219.48 55.86) rotate(18.76)">R</text>
      <text class="cls-28" transform="translate(1233.37 60.68) rotate(22.11)">E</text>
      <circle id="KEEP-OUT" class="cls-29" cx="1147.66" cy="286.5" r="224.28"></circle>
      <g id="ISS">
         <rect class="cls-30" x="1001.88" y="280.35" width="292.46" height="11.98" transform="translate(2116.38 966.51) rotate(-158.92)"></rect>
         <path class="cls-30" d="M1108.42,307.71h52.93a2.51,2.51,0,0,1,2.51,2.51v15.25a2.51,2.51,0,0,1-2.51,2.51h-52.93a0,0,0,0,1,0,0V307.71A0,0,0,0,1,1108.42,307.71Z" transform="translate(1841.4 -627.91) rotate(111.08)"></path>
         <path class="cls-30" d="M1131.79,239.87h63.52a0,0,0,0,1,0,0v20.27a0,0,0,0,1,0,0h-63.52a2.51,2.51,0,0,1-2.51-2.51V242.38a2.51,2.51,0,0,1,2.51-2.51Z" transform="translate(1813.67 -744.56) rotate(111.08)"></path>
         <path class="cls-30" d="M1182.17,336.06l3.56-9.22a1.56,1.56,0,0,0-.89-2l-16-6.17a1.56,1.56,0,0,0-2,.9l-3.56,9.22,1,2.14L1180,337Z"></path>
         <path class="cls-30" d="M1120.77,343.12l-1.65,4.28a.81.81,0,0,0,.47,1l8.28,3.19a.81.81,0,0,0,1.05-.46l1.64-4.28-.85-1.82-7.08-2.73Z"></path>
         <polyline class="cls-30" points="1174.49 356.6 1139.1 342.95 1138.15 340.81"></polyline>
         <path class="cls-30" d="M1144.24,325l2.15-.95,36.71,14.16h0a28.61,28.61,0,0,1-2.64,11.83q-.17.38-.36.75"></path>
         <path class="cls-31" d="M1100.62,319.69a2.27,2.27,0,1,1,1.64-4.24"></path>
         <path class="cls-30" d="M1125.34,317.7l-1-2.14L1106,308.49h0a48,48,0,0,0-7.29,18.91h0l18.34,7.07,2.15-1"></path>
         <line class="cls-30" x1="1244.41" y1="343.29" x2="1218.23" y2="333.2"></line>
         <rect class="cls-31" x="1174.94" y="379.43" width="94.26" height="11.53" transform="translate(423.06 1386.9) rotate(-68.92)"></rect>
         <rect class="cls-31" x="1159.53" y="373.49" width="94.26" height="11.53" transform="translate(418.73 1368.71) rotate(-68.92)"></rect>
         <rect class="cls-30" x="1182.88" y="426.1" width="28.05" height="2.8" transform="translate(2159.91 1256.95) rotate(-158.92)"></rect>
         <rect class="cls-30" x="1217.8" y="335.54" width="28.05" height="2.8" transform="translate(2259.99 1094.44) rotate(-158.92)"></rect>
         <rect class="cls-30" x="1232.46" y="326.24" width="3.24" height="9.72" transform="translate(2266.44 1083.96) rotate(-158.92)"></rect>
         <line class="cls-30" x1="1277.9" y1="356.21" x2="1251.73" y2="346.11"></line>
         <rect class="cls-31" x="1208.44" y="392.34" width="94.26" height="11.53" transform="translate(432.45 1426.42) rotate(-68.92)"></rect>
         <rect class="cls-31" x="1193.02" y="386.4" width="94.26" height="11.53" transform="translate(428.13 1408.23) rotate(-68.92)"></rect>
         <rect class="cls-30" x="1216.38" y="439.02" width="28.05" height="2.8" transform="translate(2220.01 1293.96) rotate(-158.92)"></rect>
         <rect class="cls-30" x="1251.29" y="348.45" width="28.05" height="2.8" transform="translate(2320.09 1131.45) rotate(-158.92)"></rect>
         <rect class="cls-30" x="1265.95" y="339.15" width="3.24" height="9.72" transform="translate(2326.54 1120.97) rotate(-158.92)"></rect>
         <line class="cls-30" x1="1031.19" y1="261.09" x2="1005.02" y2="251"></line>
         <rect class="cls-31" x="961.73" y="297.23" width="94.26" height="11.53" transform="translate(363.24 1135.32) rotate(-68.92)"></rect>
         <rect class="cls-31" x="946.31" y="291.28" width="94.26" height="11.53" transform="translate(358.91 1117.13) rotate(-68.92)"></rect>
         <rect class="cls-30" x="969.67" y="343.9" width="28.05" height="2.8" transform="translate(1777.32 1021.35) rotate(-158.92)"></rect>
         <rect class="cls-30" x="1004.58" y="253.34" width="28.05" height="2.8" transform="translate(1877.39 858.84) rotate(-158.92)"></rect>
         <rect class="cls-30" x="1019.24" y="244.04" width="3.24" height="9.72" transform="translate(1883.85 848.36) rotate(-158.92)"></rect>
         <line class="cls-30" x1="1064.68" y1="274" x2="1038.51" y2="263.91"></line>
         <rect class="cls-31" x="995.22" y="310.14" width="94.26" height="11.53" transform="translate(372.63 1174.84) rotate(-68.92)"></rect>
         <rect class="cls-31" x="979.81" y="304.2" width="94.26" height="11.53" transform="matrix(0.36, -0.93, 0.93, 0.36, 368.31, 1156.65)"></rect>
         <rect class="cls-30" x="1003.16" y="356.81" width="28.05" height="2.8" transform="translate(1837.42 1058.36) rotate(-158.92)"></rect>
         <rect class="cls-30" x="1038.08" y="266.25" width="28.05" height="2.8" transform="translate(1937.49 895.85) rotate(-158.92)"></rect>
         <rect class="cls-30" x="1052.73" y="256.95" width="3.24" height="9.72" transform="translate(1943.95 885.37) rotate(-158.92)"></rect>
         <line class="cls-30" x1="1051.82" y1="229.38" x2="1078" y2="239.47"></line>
         <rect class="cls-31" x="1027.03" y="181.71" width="94.26" height="11.53" transform="translate(512.83 1122.29) rotate(-68.92)"></rect>
         <rect class="cls-31" x="1042.44" y="187.65" width="94.26" height="11.53" transform="translate(517.16 1140.48) rotate(-68.92)"></rect>
         <rect class="cls-30" x="1085.3" y="143.76" width="28.05" height="2.8" transform="translate(125.81 -385.73) rotate(21.08)"></rect>
         <rect class="cls-30" x="1050.38" y="234.33" width="28.05" height="2.8" transform="translate(156.05 -367.11) rotate(21.08)"></rect>
         <rect class="cls-30" x="1060.54" y="236.71" width="3.24" height="9.72" transform="translate(158 -365.91) rotate(21.08)"></rect>
         <line class="cls-30" x1="1018.33" y1="216.46" x2="1044.5" y2="226.56"></line>
         <rect class="cls-31" x="993.53" y="168.8" width="94.26" height="11.53" transform="translate(503.44 1082.77) rotate(-68.92)"></rect>
         <rect class="cls-31" x="1008.95" y="174.74" width="94.26" height="11.53" transform="translate(507.76 1100.96) rotate(-68.92)"></rect>
         <rect class="cls-30" x="1051.8" y="130.85" width="28.05" height="2.8" transform="translate(118.92 -374.55) rotate(21.08)"></rect>
         <rect class="cls-30" x="1016.89" y="221.42" width="28.05" height="2.8" transform="translate(149.16 -355.93) rotate(21.08)"></rect>
         <rect class="cls-30" x="1027.04" y="223.8" width="3.24" height="9.72" transform="translate(151.11 -354.73) rotate(21.08)"></rect>
         <line class="cls-30" x1="1265.04" y1="311.58" x2="1291.22" y2="321.67"></line>
         <rect class="cls-31" x="1240.25" y="263.91" width="94.26" height="11.53" transform="translate(572.65 1373.87) rotate(-68.92)"></rect>
         <rect class="cls-31" x="1255.66" y="269.86" width="94.26" height="11.53" transform="translate(576.98 1392.05) rotate(-68.92)"></rect>
         <rect class="cls-30" x="1298.52" y="225.97" width="28.05" height="2.8" transform="translate(169.65 -456.93) rotate(21.08)"></rect>
         <rect class="cls-30" x="1263.6" y="316.53" width="28.05" height="2.8" transform="translate(199.89 -438.31) rotate(21.08)"></rect>
         <rect class="cls-30" x="1273.76" y="318.91" width="3.24" height="9.72" transform="translate(201.84 -437.11) rotate(21.08)"></rect>
         <line class="cls-30" x1="1231.55" y1="298.67" x2="1257.72" y2="308.76"></line>
         <rect class="cls-31" x="1206.75" y="251" width="94.26" height="11.53" transform="translate(563.25 1334.35) rotate(-68.92)"></rect>
         <rect class="cls-31" x="1222.17" y="256.94" width="94.26" height="11.53" transform="translate(567.58 1352.53) rotate(-68.92)"></rect>
         <rect class="cls-30" x="1265.02" y="213.05" width="28.05" height="2.8" transform="translate(162.77 -445.75) rotate(21.08)"></rect>
         <rect class="cls-30" x="1230.11" y="303.62" width="28.05" height="2.8" transform="translate(193.01 -427.13) rotate(21.08)"></rect>
         <rect class="cls-30" x="1240.26" y="306" width="3.24" height="9.72" transform="translate(194.96 -425.92) rotate(21.08)"></rect>
         <rect class="cls-31" x="1174.55" y="354.43" width="18.02" height="7.41" transform="translate(2159.06 1118.05) rotate(-158.92)"></rect>
         <path class="cls-30" d="M1184.78,354.63l1.74-13.94a.3.3,0,0,0-.57-.14l-3.22,8.36-1.54-.59"></path>
         <rect class="cls-30" x="1178.01" y="350.63" width="3.08" height="1.92" transform="translate(2153.67 1103.96) rotate(-158.92)"></rect>
         <path class="cls-30" d="M1192.7,359.47a2,2,0,0,1-1.46,3.81"></path>
         <rect class="cls-31" x="1101.41" y="325.31" width="16.95" height="2.7" rx="0.84" transform="translate(2027.95 1030.7) rotate(-158.92)"></rect>
         <line class="cls-30" x1="1119.35" y1="324.48" x2="1104.32" y2="318.68"></line>
         <line class="cls-30" x1="1152.19" y1="303.77" x2="1128.91" y2="308.44"></line>
         <line class="cls-30" x1="1133.5" y1="296.56" x2="1147.61" y2="315.65"></line>
         <circle class="cls-31" cx="1129.15" cy="335.54" r="3.53"></circle>
         <circle class="cls-31" cx="1161.74" cy="251" r="5.09"></circle>
         <line class="cls-30" x1="1163.07" y1="276.16" x2="1144.16" y2="268.87"></line>
         <line class="cls-30" x1="1178.52" y1="236.08" x2="1159.61" y2="228.79"></line>
         <line class="cls-30" x1="1172.58" y1="242.67" x2="1159.59" y2="237.67"></line>
         <line class="cls-30" x1="1178.91" y1="226.26" x2="1165.92" y2="221.26"></line>
         <line class="cls-30" x1="1171.34" y1="238.1" x2="1163.58" y2="235.11"></line>
         <line class="cls-30" x1="1172.18" y1="333.99" x2="1164.89" y2="352.9"></line>
         <line class="cls-30" x1="1153.08" y1="330.02" x2="1148.07" y2="343.01"></line>
         <line class="cls-30" x1="1168.18" y1="272.13" x2="1186.72" y2="224.04"></line>
         <line class="cls-30" x1="1169.97" y1="267.49" x2="1166.87" y2="266.3"></line>
         <line class="cls-30" x1="1184.96" y1="228.6" x2="1181.87" y2="227.41"></line>
         <line class="cls-30" x1="1161.62" y1="214.36" x2="1143.08" y2="262.46"></line>
         <line class="cls-30" x1="1159.83" y1="219" x2="1162.93" y2="220.19"></line>
         <line class="cls-30" x1="1144.84" y1="257.89" x2="1147.93" y2="259.09"></line>
         <rect class="cls-31" x="1194.71" y="282.88" width="8.52" height="6.88" transform="translate(2214.69 984.76) rotate(-158.92)"></rect>
         <rect class="cls-31" x="1198.23" y="273.75" width="8.52" height="6.88" transform="translate(2224.77 968.39) rotate(-158.92)"></rect>
         <rect class="cls-31" x="1201.74" y="264.63" width="8.52" height="6.88" transform="translate(2234.85 952.02) rotate(-158.92)"></rect>
         <rect class="cls-31" x="1205.26" y="255.51" width="8.52" height="6.88" transform="translate(2244.93 935.65) rotate(-158.92)"></rect>
         <rect class="cls-31" x="1184.65" y="279" width="8.52" height="6.88" transform="translate(2196.63 973.64) rotate(-158.92)"></rect>
         <rect class="cls-31" x="1188.17" y="269.87" width="8.52" height="6.88" transform="translate(2206.72 957.27) rotate(-158.92)"></rect>
         <rect class="cls-31" x="1191.68" y="260.75" width="8.52" height="6.88" transform="translate(2216.8 940.9) rotate(-158.92)"></rect>
         <rect class="cls-31" x="1195.2" y="251.63" width="8.52" height="6.88" transform="translate(2226.88 924.53) rotate(-158.92)"></rect>
         <rect class="cls-31" x="1174.6" y="275.12" width="8.52" height="6.88" transform="translate(2178.6 962.54) rotate(-158.92)"></rect>
         <rect class="cls-31" x="1178.12" y="266" width="8.52" height="6.88" transform="translate(2188.68 946.17) rotate(-158.92)"></rect>
         <rect class="cls-31" x="1181.63" y="256.88" width="8.52" height="6.88" transform="translate(2198.77 929.8) rotate(-158.92)"></rect>
         <rect class="cls-31" x="1185.15" y="247.75" width="8.52" height="6.88" transform="translate(2208.85 913.43) rotate(-158.92)"></rect>
         <line class="cls-30" x1="1200.22" y1="283.08" x2="1201.25" y2="280.4"></line>
         <line class="cls-30" x1="1203.72" y1="273.98" x2="1204.76" y2="271.3"></line>
         <line class="cls-30" x1="1207.24" y1="264.86" x2="1208.28" y2="262.18"></line>
         <line class="cls-30" x1="1190.16" y1="279.2" x2="1191.19" y2="276.52"></line>
         <line class="cls-30" x1="1193.66" y1="270.1" x2="1194.7" y2="267.42"></line>
         <line class="cls-30" x1="1197.18" y1="260.98" x2="1198.22" y2="258.3"></line>
         <line class="cls-30" x1="1180.17" y1="275.35" x2="1181.21" y2="272.67"></line>
         <line class="cls-30" x1="1183.68" y1="266.26" x2="1184.72" y2="263.57"></line>
         <line class="cls-30" x1="1187.2" y1="257.13" x2="1188.23" y2="254.45"></line>
         <rect class="cls-30" x="1184.46" y="285.34" width="3.24" height="8.89" transform="translate(183.64 -407.26) rotate(21.08)"></rect>
         <rect class="cls-31" x="1126.58" y="256.61" width="8.52" height="6.88" transform="translate(2092.45 909.48) rotate(-158.92)"></rect>
         <rect class="cls-31" x="1130.1" y="247.49" width="8.52" height="6.88" transform="translate(2102.53 893.11) rotate(-158.92)"></rect>
         <rect class="cls-31" x="1133.62" y="238.37" width="8.52" height="6.88" transform="translate(2112.61 876.74) rotate(-158.92)"></rect>
         <rect class="cls-31" x="1137.14" y="229.24" width="8.52" height="6.88" transform="translate(2122.69 860.37) rotate(-158.92)"></rect>
         <rect class="cls-31" x="1116.52" y="252.73" width="8.52" height="6.88" transform="translate(2074.39 898.37) rotate(-158.92)"></rect>
         <rect class="cls-31" x="1120.04" y="243.61" width="8.52" height="6.88" transform="translate(2084.47 881.99) rotate(-158.92)"></rect>
         <rect class="cls-31" x="1123.56" y="234.49" width="8.52" height="6.88" transform="translate(2094.55 865.62) rotate(-158.92)"></rect>
         <rect class="cls-31" x="1127.07" y="225.36" width="8.52" height="6.88" transform="translate(2104.64 849.25) rotate(-158.92)"></rect>
         <rect class="cls-31" x="1106.47" y="248.86" width="8.52" height="6.88" transform="translate(2056.36 887.26) rotate(-158.92)"></rect>
         <rect class="cls-31" x="1109.99" y="239.74" width="8.52" height="6.88" transform="translate(2066.44 870.89) rotate(-158.92)"></rect>
         <rect class="cls-31" x="1113.51" y="230.61" width="8.52" height="6.88" transform="matrix(-0.93, -0.36, 0.36, -0.93, 2076.52, 854.52)"></rect>
         <rect class="cls-31" x="1117.03" y="221.49" width="8.52" height="6.88" transform="translate(2086.6 838.15) rotate(-158.92)"></rect>
         <line class="cls-30" x1="1132.09" y1="256.82" x2="1133.13" y2="254.13"></line>
         <line class="cls-30" x1="1135.6" y1="247.72" x2="1136.63" y2="245.04"></line>
         <line class="cls-30" x1="1139.12" y1="238.6" x2="1140.15" y2="235.91"></line>
         <line class="cls-30" x1="1122.03" y1="252.94" x2="1123.07" y2="250.25"></line>
         <line class="cls-30" x1="1125.54" y1="243.84" x2="1126.57" y2="241.16"></line>
         <line class="cls-30" x1="1129.06" y1="234.72" x2="1130.09" y2="232.03"></line>
         <line class="cls-30" x1="1112.05" y1="249.09" x2="1113.08" y2="246.41"></line>
         <line class="cls-30" x1="1115.56" y1="239.99" x2="1116.59" y2="237.31"></line>
         <line class="cls-30" x1="1119.07" y1="230.87" x2="1120.11" y2="228.19"></line>
         <rect class="cls-30" x="1116.33" y="259.08" width="3.24" height="8.89" transform="translate(169.63 -384.51) rotate(21.08)"></rect>
         <line class="cls-30" x1="1211.07" y1="317.02" x2="1205.67" y2="331.01"></line>
         <rect class="cls-31" x="1199.01" y="324.82" width="7.82" height="4.95" transform="translate(2207.58 1065.4) rotate(-158.92)"></rect>
         <rect class="cls-31" x="1203.23" y="319.53" width="5.97" height="3.53" transform="translate(2216.12 1054.99) rotate(-158.92)"></rect>
         <rect class="cls-31" x="1207.79" y="323.4" width="3.91" height="4.95" transform="translate(2221.29 1065.11) rotate(-158.92)"></rect>
         <line class="cls-30" x1="1211.73" y1="304.44" x2="1217.12" y2="290.45"></line>
         <rect class="cls-31" x="1215.97" y="291.69" width="7.82" height="4.95" transform="translate(187.48 -419.13) rotate(21.08)"></rect>
         <rect class="cls-31" x="1213.59" y="298.4" width="5.97" height="3.53" transform="translate(189.42 -417.54) rotate(21.08)"></rect>
         <rect class="cls-31" x="1211.09" y="293.11" width="3.91" height="4.95" transform="translate(187.53 -416.58) rotate(21.08)"></rect>
         <line class="cls-30" x1="1085.46" y1="255.76" x2="1090.86" y2="241.77"></line>
         <rect class="cls-31" x="1089.71" y="243.01" width="7.82" height="4.95" transform="translate(161.52 -376.97) rotate(21.08)"></rect>
         <rect class="cls-31" x="1087.32" y="249.72" width="5.97" height="3.53" transform="translate(163.45 -375.38) rotate(21.08)"></rect>
         <rect class="cls-31" x="1084.83" y="244.43" width="3.91" height="4.95" transform="translate(161.57 -374.41) rotate(21.08)"></rect>
         <line class="cls-30" x1="1084.8" y1="268.34" x2="1079.41" y2="282.33"></line>
         <rect class="cls-31" x="1072.74" y="276.14" width="7.82" height="4.95" transform="translate(1981.01 925.88) rotate(-158.92)"></rect>
         <rect class="cls-31" x="1076.97" y="270.85" width="5.97" height="3.53" transform="translate(1989.55 915.47) rotate(-158.92)"></rect>
         <rect class="cls-31" x="1081.53" y="274.72" width="3.91" height="4.95" transform="translate(1994.72 925.59) rotate(-158.92)"></rect>
      </g>
      <g id="STEP-3">
         <rect class="cls-32" x="1645.65" y="677.61" width="44.13" height="47.85" transform="translate(966.18 2369.26) rotate(-90)"></rect>
         <path class="cls-33" d="M1664.73,673.25l-15.14,6.22h42.05v-8.4h-15.86A29.06,29.06,0,0,0,1664.73,673.25Z"></path>
         <path class="cls-33" d="M1664.73,729.82l-15.14-6.22h42.05V732h-15.86A29.06,29.06,0,0,1,1664.73,729.82Z"></path>
         <ellipse class="cls-33" cx="1674.02" cy="688.12" rx="5.08" ry="3.15"></ellipse>
         <polygon class="cls-34" points="1649.59 701.54 1656.61 706.31 1691.64 706.31 1691.64 696.76 1656.61 696.76 1649.59 701.54"></polygon>
         <line class="cls-32" x1="1649.59" y1="701.54" x2="1691.59" y2="701.54"></line>
         <path class="cls-32" d="M1645.11,678.31c-6.1,0-30.06,4.66-43,12.59v2.47a46.4,46.4,0,0,0,5.21,21.56c13.33,6.23,32.42,9.82,37.77,9.82Z"></path>
         <path class="cls-33" d="M1645.11,724.75V678.31a35.4,35.4,0,0,0-4.09.34v45.76A35.4,35.4,0,0,0,1645.11,724.75Z"></path>
         <ellipse class="cls-33" cx="1620.75" cy="715.61" rx="2.42" ry="3.81" transform="translate(565.84 2139.02) rotate(-77.28)"></ellipse>
         <ellipse class="cls-33" cx="1620.75" cy="687.44" rx="3.74" ry="2.37" transform="translate(-111.59 373.74) rotate(-12.72)"></ellipse>
         <line class="cls-35" x1="1629.6" y1="722.24" x2="1629.6" y2="680.79"></line>
         <rect class="cls-33" x="1630.23" y="698.35" width="10.46" height="6.36" rx="1.58" transform="translate(933.93 2336.99) rotate(-90)"></rect>
         <polygon class="cls-33" points="1626.78 695.75 1626.78 707.31 1614.98 707.04 1614.98 696.02 1626.78 695.75"></polygon>
         <line class="cls-35" x1="1629.6" y1="691.95" x2="1602.16" y2="695.02"></line>
         <line class="cls-35" x1="1629.6" y1="711.11" x2="1604.53" y2="708.31"></line>
         <line class="cls-35" x1="1608.88" y1="705.68" x2="1608.88" y2="697.39"></line>
         <ellipse class="cls-33" cx="1636.03" cy="718.85" rx="1.71" ry="1.74"></ellipse>
         <ellipse class="cls-33" cx="1636.03" cy="684.19" rx="1.71" ry="1.74"></ellipse>
         <ellipse class="cls-33" cx="1620.88" cy="701.53" rx="1.81" ry="1.85"></ellipse>
         <path class="cls-32" d="M1594.76,733.32l-1.76,1.75c5.78,1.4,10.73,1.25,13.57-1.59,3.7-3.7,2.82-11-.09-19.06a.08.08,0,0,0-.15,0A46.54,46.54,0,0,1,1594.76,733.32Z"></path>
         <path class="cls-32" d="M1600.38,692v19.14a48.17,48.17,0,0,0,7,3.78,44.89,44.89,0,0,1-5.21-21.45V690.9C1601.57,691.24,1600.9,691.66,1600.38,692Z"></path>
         <path class="cls-33" d="M1600.72,697.75a1.26,1.26,0,1,1,0,2.51h-1.34v-2.51Z"></path>
         <path class="cls-33" d="M1600.72,707.64a1.26,1.26,0,1,1,0,2.51h-1.34v-2.51Z"></path>
         <rect class="cls-33" x="1598.63" y="703.45" width="2.51" height="0.99" transform="translate(895.93 2303.83) rotate(-90)"></rect>
         <rect class="cls-33" x="1598.63" y="693.56" width="2.51" height="0.99" transform="translate(905.82 2293.94) rotate(-90)"></rect>
      </g>
   </g>
</svg>